# xmcd CD database file
#
# Track frame offsets:
#	150
#	34000
#	51370
#	94875
#	120332
#	141537
#	168645
#	188200
#	203250
#	220462
#	243625
#	263770
#	284995
#	301237
#	323662
#
# Disc length: 4756 seconds
#
# Revision: 3
# Processed by: cddbd v1.5.2PL0 Copyright (c) Steve Scherf et al.
# Submitted via: CDex 1.51
#
DISCID=e612920f
DTITLE=Gary Moore - blues and moore
DYEAR=1978
DGENRE=Blues
TTITLE0=Go, I'm Never Gonna Let You Go
TTITLE1=Lonesome Still
TTITLE2=Grinding Stone
TTITLE3=Boogie My Way Back Home
TTITLE4=Lament
TTITLE5=War Dance
TTITLE6=Back To The Street
TTITLE7=Parisienne Walkways
TTITLE8=Spanish Guitar
TTITLE9=Whte Knuckles (Rockin and Rollin)
TTITLE10=Hiroshima
TTITLE11=Run To Your Mama
TTITLE12=Don't Let Me Be Misunderstood
TTITLE13=Bad News
TTITLE14=Parisienne Walkways (Live)
EXTD=YEAR: 1978
EXTT0=
EXTT1=
EXTT2=
EXTT3=
EXTT4=
EXTT5=
EXTT6=
EXTT7=
EXTT8=
EXTT9=
EXTT10=
EXTT11=
EXTT12=
EXTT13=
EXTT14=
PLAYORDER=
